<svg xmlns="http://www.w3.org/2000/svg" version="1.1" xmlns:xlink="http://www.w3.org/1999/xlink" xmlns:svgjs="http://svgjs.dev/svgjs" width="1440" height="567" preserveAspectRatio="none" viewBox="0 0 1440 567"><g mask="url(&quot;#SvgjsMask1021&quot;)" fill="none"><rect width="1440" height="567" x="0" y="0" fill="rgba(18, 18, 18, 1)"></rect><path d="M0 0C0 0 0 0 0 0C71 0 71 0 142 0C213 0 213 0 284 0C355 0 355 0 426 0C497 0 497 0 568 0C639 0 639 0 710 0C781 0 781 0 852 0C923 0 923 0 994 0C1065 0 1065 0 1136 0C1207 0 1207 0 1278 0C1349 0 1349 0 1420 0C1491 0 1526.5 -35.5 1562 0C1597.5 35.5 1562 71 1562 142C1562 205.58 1580.32 219.43 1562 269.16C1554.16 290.43 1509.68 273.17 1509.68 284C1509.68 296.12 1552.73 289.91 1562 315.06C1578.89 360.91 1562 370.53 1562 426C1562 497 1597.5 532.5 1562 568C1526.5 603.5 1491 568 1420 568C1349 568 1349 568 1278 568C1207 568 1207 568 1136 568C1065 568 1065 568 994 568C923 568 923 568 852 568C808.05 568 795.42 589.47 764.1 568C724.42 540.79 736.58 470.63 710 470.63C683.71 470.63 697.37 541.25 658.36 568C626.37 589.93 613.18 568 568 568C497 568 497 568 426 568C355 568 355 568 284 568C213 568 213 568 142 568C71 568 40.34 598.66 0 568C-30.66 544.7 -12.41 508.67 0 460.08C5.72 437.67 36.26 440.72 36.26 426C36.26 413.78 4.58 424.13 0 406.19C-13.55 353.13 0 345.1 0 284C0 213 0 213 0 142C0 71 0 71 0 0" stroke="rgba(194, 99, 51, 0.58)" stroke-width="2"></path><path d="M426 56.8C407.38 56.8 392.59 102.35 392.59 142C392.59 163.88 408.15 179.87 426 179.87C446.15 179.87 468.6 165.04 468.6 142C468.6 103.5 445.38 56.8 426 56.8" stroke="rgba(194, 99, 51, 0.58)" stroke-width="2"></path><path d="M852 253.88C835.49 253.88 816.5 270.95 816.5 284C816.5 295.21 834.93 302.41 852 302.41C865.42 302.41 877.49 294.76 877.49 284C877.49 270.5 865.99 253.88 852 253.88" stroke="rgba(194, 99, 51, 0.58)" stroke-width="2"></path><path d="M27.48 142C81.11 75.38 74.15 65.27 126.79 0C131.41 -5.73 134.39 0 142 0C213 0 213 0 284 0C300.13 0 312.66 -13.14 316.27 0C332.15 57.86 330.91 72.25 322.98 142C314.77 214.25 329.42 257 284 284C238.93 310.79 205.64 249.58 142 249.58C124.68 249.58 122.07 265.69 122.07 284C122.07 314.46 117.82 347.11 142 347.11C198.78 347.11 213 315.56 284 284C284 284 284 284 284 284C355 271.38 364.39 290.76 426 258.76C501.07 219.76 497.99 204.51 557.35 142C568.99 129.74 563.72 125.91 568 109.23C581.95 54.91 558.93 26.84 593.82 0C629.93 -27.78 651.91 0 710 0C781 0 781 0 852 0C870.93 0 871.66 -4.45 889.87 0C942.66 12.9 945.5 34.71 994 34.71C1017.09 34.71 1009.15 5.84 1033.05 0C1080.15 -11.51 1084.53 0 1136 0C1187.47 0 1196.64 -17.24 1238.95 0C1267.64 11.69 1249.3 56.5 1278 57.85C1339.82 60.76 1350.24 35.23 1420 8.52C1425.77 6.31 1422.99 0.36 1429.06 0C1493.99 -3.9 1529.86 -34.33 1562 0C1596.33 36.67 1562 71 1562 142C1562 179.09 1585.84 197.51 1562 216.18C1514.84 253.12 1491.68 249.9 1420 253.23C1349.68 256.5 1340.81 219.09 1278 229.38C1246.9 234.47 1254.73 256.39 1232.19 284C1183.73 343.34 1187.64 347.6 1136 403.28C1121.8 418.6 1117.91 414.13 1100.5 426C1046.91 462.54 1043.37 458.6 994 500.09C958.88 529.6 969.66 549.76 931.52 568C898.66 583.72 891.76 568 852 568C836.22 568 827.89 580.18 820.44 568C784.5 509.18 755.85 485.32 765.22 426C771.63 385.39 809.26 398.01 852 368.15C910.9 327.01 968.51 333.19 968.51 284C968.51 222.26 920.42 163 852 146.3C791.16 131.45 766.4 171.96 710 220.89C687.04 240.81 702.24 252.61 693.29 284C673 355.17 673.59 355.37 651.53 426C629.24 497.37 638.14 510.95 604.58 568C596.37 581.95 586.29 568 568 568C526.38 568 523.11 578.7 484.76 568C452.11 558.89 459.38 533.57 426 528.37C359 517.93 354.12 526.56 284 536.71C217.19 546.38 218.2 553.44 152.14 568C147.2 569.09 147.07 568 142 568C71 568 56.35 582.65 0 568C-14.65 564.19 -10.84 544.85 0 531.08C45.05 473.85 111.79 471.39 111.79 426C111.79 388.31 34.18 408.33 0 364.91C-21.71 337.33 0 324.46 0 284C0 220.75 -11 214.32 0 157.49C2.74 143.32 17.72 154.13 27.48 142" stroke="rgba(194, 99, 51, 0.58)" stroke-width="2"></path><path d="M1136 102.95C1116.19 102.95 1101.29 121.53 1101.29 142C1101.29 165.46 1115.56 190.81 1136 190.81C1161.84 190.81 1193.85 164.85 1193.85 142C1193.85 120.92 1162.47 102.95 1136 102.95" stroke="rgba(194, 99, 51, 0.58)" stroke-width="2"></path><path d="M1376.31 426C1398.15 409.29 1394.58 392.59 1420 392.59C1487.42 392.59 1491 409.29 1562 426C1562 426 1562 426 1562 426C1562 497 1597.5 532.5 1562 568C1526.5 603.5 1491 568 1420 568C1349 568 1349 568 1278 568C1260.25 568 1242.5 578.67 1242.5 568C1242.5 545.26 1252.62 528.12 1278 501.18C1319.52 457.12 1327.15 463.59 1376.31 426" stroke="rgba(194, 99, 51, 0.58)" stroke-width="2"></path><path d="M710 71C681.62 71 658.36 22.35 658.36 0C658.36 -13.15 684.18 0 710 0C744.63 0 779.27 -14.6 779.27 0C779.27 20.9 742.07 71 710 71" stroke="rgba(194, 99, 51, 0.58)" stroke-width="2"></path><path d="M955.27 142C955.27 125.34 975.72 113.6 994 113.6C1009.29 113.6 1022.4 126.05 1022.4 142C1022.4 163.92 1009.92 189.33 994 189.33C976.36 189.33 955.27 163.21 955.27 142" stroke="rgba(194, 99, 51, 0.58)" stroke-width="2"></path><path d="M1136 14.2C1128.9 14.2 1121.8 4.16 1121.8 0C1121.8 -2.94 1128.9 0 1136 0C1143.1 0 1150.2 -2.94 1150.2 0C1150.2 4.16 1143.1 14.2 1136 14.2" stroke="rgba(194, 99, 51, 0.58)" stroke-width="2"></path><path d="M1319.23 142C1319.23 112.73 1373.17 115.39 1420 79.52C1465.86 44.39 1457.09 26.61 1504.6 0C1528.09 -13.15 1553.74 -20.44 1562 0C1582.44 50.56 1562 71 1562 142C1562 152.6 1571.04 159.88 1562 163.19C1500.04 185.91 1488.17 200.02 1420 194.07C1366.79 189.43 1319.23 170 1319.23 142" stroke="rgba(194, 99, 51, 0.58)" stroke-width="2"></path><path d="M0 222.04C17.38 222.04 59.79 256.29 59.79 284C59.79 307.08 19.26 323.63 0 323.63C-10.64 323.63 0 303.82 0 284C0 253.02 -12.51 222.04 0 222.04" stroke="rgba(194, 99, 51, 0.58)" stroke-width="2"></path><path d="M535.73 284C535.73 267.07 553.29 257.7 568 257.7C579.87 257.7 588.88 268.82 588.88 284C588.88 317.47 580.94 355 568 355C554.36 355 535.73 315.72 535.73 284" stroke="rgba(194, 99, 51, 0.58)" stroke-width="2"></path><path d="M201.17 426C201.17 395.99 236.68 368.97 284 361.17C349.09 350.45 357.13 368.62 426 388.96C466.86 401.03 503.45 411.28 503.45 426C503.45 439.71 464.95 436.84 426 445.81C355.22 462.11 351.4 482.48 284 476.54C238.99 472.57 201.17 453.68 201.17 426" stroke="rgba(194, 99, 51, 0.58)" stroke-width="2"></path><path d="M1420 568C1420 552.02 1511.16 506.68 1562 506.68C1582.16 506.68 1583.41 558.75 1562 568C1512.41 589.41 1420 582.68 1420 568" stroke="rgba(194, 99, 51, 0.58)" stroke-width="2"></path></g><defs><mask id="SvgjsMask1021"><rect width="1440" height="567" fill="#ffffff"></rect></mask></defs></svg>