<svg xmlns="http://www.w3.org/2000/svg" version="1.1" xmlns:xlink="http://www.w3.org/1999/xlink" xmlns:svgjs="http://svgjs.dev/svgjs" width="1440" height="810" preserveAspectRatio="none" viewBox="0 0 1440 810"><g mask="url(&quot;#SvgjsMask1080&quot;)" fill="none"><path d="M-38.99 490L-38.99 490" stroke="rgba(254, 87, 34, 1)" stroke-width="1.5"></path><path d="M-38.99 490L74.88 535.84" stroke="rgba(254, 87, 34, 1)" stroke-width="1.5"></path><path d="M-38.99 490L-82.01 693.46" stroke="rgba(254, 87, 34, 1)" stroke-width="1.5"></path><path d="M-38.99 490L88.99 666.42" stroke="rgba(254, 87, 34, 1)" stroke-width="1.5"></path><path d="M-38.99 490L219.4 562.3" stroke="rgba(254, 87, 34, 1)" stroke-width="1.5"></path><path d="M-82.01 693.46L-82.01 693.46" stroke="rgba(254, 87, 34, 1)" stroke-width="1.5"></path><path d="M-82.01 693.46L-48.46 821.4" stroke="rgba(254, 87, 34, 1)" stroke-width="1.5"></path><path d="M-82.01 693.46L88.99 666.42" stroke="rgba(254, 87, 34, 1)" stroke-width="1.5"></path><path d="M-82.01 693.46L87.29 819.18" stroke="rgba(254, 87, 34, 1)" stroke-width="1.5"></path><path d="M-82.01 693.46L74.88 535.84" stroke="rgba(254, 87, 34, 1)" stroke-width="1.5"></path><path d="M-82.01 693.46L-41.26 947.17" stroke="rgba(254, 87, 34, 1)" stroke-width="1.5"></path><path d="M-48.46 821.4L-48.46 821.4" stroke="rgba(254, 87, 34, 1)" stroke-width="1.5"></path><path d="M-48.46 821.4L-41.26 947.17" stroke="rgba(254, 87, 34, 1)" stroke-width="1.5"></path><path d="M-41.26 947.17L-41.26 947.17" stroke="rgba(254, 87, 34, 1)" stroke-width="1.5"></path><path d="M-41.26 947.17L64.44 964.98" stroke="rgba(254, 87, 34, 1)" stroke-width="1.5"></path><path d="M74.88 535.84L74.88 535.84" stroke="rgba(254, 87, 34, 1)" stroke-width="1.5"></path><path d="M74.88 535.84L88.99 666.42" stroke="rgba(254, 87, 34, 1)" stroke-width="1.5"></path><path d="M74.88 535.84L219.4 562.3" stroke="rgba(254, 87, 34, 1)" stroke-width="1.5"></path><path d="M74.88 535.84L87.29 819.18" stroke="rgba(254, 87, 34, 1)" stroke-width="1.5"></path><path d="M88.99 666.42L88.99 666.42" stroke="rgba(254, 87, 34, 1)" stroke-width="1.5"></path><path d="M88.99 666.42L87.29 819.18" stroke="rgba(254, 87, 34, 1)" stroke-width="1.5"></path><path d="M87.29 819.18L87.29 819.18" stroke="rgba(254, 87, 34, 1)" stroke-width="1.5"></path><path d="M87.29 819.18L-48.46 821.4" stroke="rgba(254, 87, 34, 1)" stroke-width="1.5"></path><path d="M87.29 819.18L224.62 788.3" stroke="rgba(254, 87, 34, 1)" stroke-width="1.5"></path><path d="M87.29 819.18L64.44 964.98" stroke="rgba(254, 87, 34, 1)" stroke-width="1.5"></path><path d="M64.44 964.98L64.44 964.98" stroke="rgba(254, 87, 34, 1)" stroke-width="1.5"></path><path d="M64.44 964.98L229.85 975.22" stroke="rgba(254, 87, 34, 1)" stroke-width="1.5"></path><path d="M64.44 964.98L-48.46 821.4" stroke="rgba(254, 87, 34, 1)" stroke-width="1.5"></path><path d="M64.44 964.98L224.62 788.3" stroke="rgba(254, 87, 34, 1)" stroke-width="1.5"></path><path d="M64.44 964.98L361.04 947.52" stroke="rgba(254, 87, 34, 1)" stroke-width="1.5"></path><path d="M219.4 562.3L219.4 562.3" stroke="rgba(254, 87, 34, 1)" stroke-width="1.5"></path><path d="M219.4 562.3L343.65 646.69" stroke="rgba(254, 87, 34, 1)" stroke-width="1.5"></path><path d="M219.4 562.3L88.99 666.42" stroke="rgba(254, 87, 34, 1)" stroke-width="1.5"></path><path d="M224.62 788.3L224.62 788.3" stroke="rgba(254, 87, 34, 1)" stroke-width="1.5"></path><path d="M224.62 788.3L375.74 839.02" stroke="rgba(254, 87, 34, 1)" stroke-width="1.5"></path><path d="M224.62 788.3L88.99 666.42" stroke="rgba(254, 87, 34, 1)" stroke-width="1.5"></path><path d="M229.85 975.22L229.85 975.22" stroke="rgba(254, 87, 34, 1)" stroke-width="1.5"></path><path d="M229.85 975.22L361.04 947.52" stroke="rgba(254, 87, 34, 1)" stroke-width="1.5"></path><path d="M229.85 975.22L224.62 788.3" stroke="rgba(254, 87, 34, 1)" stroke-width="1.5"></path><path d="M405.95 519.14L405.95 519.14" stroke="rgba(254, 87, 34, 1)" stroke-width="1.5"></path><path d="M405.95 519.14L343.65 646.69" stroke="rgba(254, 87, 34, 1)" stroke-width="1.5"></path><path d="M405.95 519.14L509.34 406.48" stroke="rgba(254, 87, 34, 1)" stroke-width="1.5"></path><path d="M405.95 519.14L561.81 552.85" stroke="rgba(254, 87, 34, 1)" stroke-width="1.5"></path><path d="M343.65 646.69L343.65 646.69" stroke="rgba(254, 87, 34, 1)" stroke-width="1.5"></path><path d="M343.65 646.69L224.62 788.3" stroke="rgba(254, 87, 34, 1)" stroke-width="1.5"></path><path d="M343.65 646.69L375.74 839.02" stroke="rgba(254, 87, 34, 1)" stroke-width="1.5"></path><path d="M343.65 646.69L545.67 703.39" stroke="rgba(254, 87, 34, 1)" stroke-width="1.5"></path><path d="M343.65 646.69L510.71 812.5" stroke="rgba(254, 87, 34, 1)" stroke-width="1.5"></path><path d="M375.74 839.02L375.74 839.02" stroke="rgba(254, 87, 34, 1)" stroke-width="1.5"></path><path d="M375.74 839.02L361.04 947.52" stroke="rgba(254, 87, 34, 1)" stroke-width="1.5"></path><path d="M375.74 839.02L510.71 812.5" stroke="rgba(254, 87, 34, 1)" stroke-width="1.5"></path><path d="M361.04 947.52L361.04 947.52" stroke="rgba(254, 87, 34, 1)" stroke-width="1.5"></path><path d="M361.04 947.52L502.02 996.55" stroke="rgba(254, 87, 34, 1)" stroke-width="1.5"></path><path d="M361.04 947.52L510.71 812.5" stroke="rgba(254, 87, 34, 1)" stroke-width="1.5"></path><path d="M361.04 947.52L224.62 788.3" stroke="rgba(254, 87, 34, 1)" stroke-width="1.5"></path><path d="M509.34 406.48L509.34 406.48" stroke="rgba(254, 87, 34, 1)" stroke-width="1.5"></path><path d="M509.34 406.48L561.81 552.85" stroke="rgba(254, 87, 34, 1)" stroke-width="1.5"></path><path d="M509.34 406.48L661.6 515.37" stroke="rgba(254, 87, 34, 1)" stroke-width="1.5"></path><path d="M509.34 406.48L700.08 378.97" stroke="rgba(254, 87, 34, 1)" stroke-width="1.5"></path><path d="M509.34 406.48L343.65 646.69" stroke="rgba(254, 87, 34, 1)" stroke-width="1.5"></path><path d="M509.34 406.48L677.13 652.85" stroke="rgba(254, 87, 34, 1)" stroke-width="1.5"></path><path d="M561.81 552.85L561.81 552.85" stroke="rgba(254, 87, 34, 1)" stroke-width="1.5"></path><path d="M561.81 552.85L661.6 515.37" stroke="rgba(254, 87, 34, 1)" stroke-width="1.5"></path><path d="M561.81 552.85L545.67 703.39" stroke="rgba(254, 87, 34, 1)" stroke-width="1.5"></path><path d="M561.81 552.85L677.13 652.85" stroke="rgba(254, 87, 34, 1)" stroke-width="1.5"></path><path d="M545.67 703.39L545.67 703.39" stroke="rgba(254, 87, 34, 1)" stroke-width="1.5"></path><path d="M545.67 703.39L510.71 812.5" stroke="rgba(254, 87, 34, 1)" stroke-width="1.5"></path><path d="M545.67 703.39L677.13 652.85" stroke="rgba(254, 87, 34, 1)" stroke-width="1.5"></path><path d="M545.67 703.39L706.69 827" stroke="rgba(254, 87, 34, 1)" stroke-width="1.5"></path><path d="M510.71 812.5L510.71 812.5" stroke="rgba(254, 87, 34, 1)" stroke-width="1.5"></path><path d="M502.02 996.55L502.02 996.55" stroke="rgba(254, 87, 34, 1)" stroke-width="1.5"></path><path d="M502.02 996.55L679.74 957.86" stroke="rgba(254, 87, 34, 1)" stroke-width="1.5"></path><path d="M700.08 378.97L700.08 378.97" stroke="rgba(254, 87, 34, 1)" stroke-width="1.5"></path><path d="M700.08 378.97L830.34 371.74" stroke="rgba(254, 87, 34, 1)" stroke-width="1.5"></path><path d="M700.08 378.97L661.6 515.37" stroke="rgba(254, 87, 34, 1)" stroke-width="1.5"></path><path d="M700.08 378.97L801.62 197.81" stroke="rgba(254, 87, 34, 1)" stroke-width="1.5"></path><path d="M661.6 515.37L661.6 515.37" stroke="rgba(254, 87, 34, 1)" stroke-width="1.5"></path><path d="M661.6 515.37L677.13 652.85" stroke="rgba(254, 87, 34, 1)" stroke-width="1.5"></path><path d="M677.13 652.85L677.13 652.85" stroke="rgba(254, 87, 34, 1)" stroke-width="1.5"></path><path d="M677.13 652.85L793.56 662.23" stroke="rgba(254, 87, 34, 1)" stroke-width="1.5"></path><path d="M706.69 827L706.69 827" stroke="rgba(254, 87, 34, 1)" stroke-width="1.5"></path><path d="M706.69 827L795.56 851.45" stroke="rgba(254, 87, 34, 1)" stroke-width="1.5"></path><path d="M706.69 827L679.74 957.86" stroke="rgba(254, 87, 34, 1)" stroke-width="1.5"></path><path d="M706.69 827L677.13 652.85" stroke="rgba(254, 87, 34, 1)" stroke-width="1.5"></path><path d="M679.74 957.86L679.74 957.86" stroke="rgba(254, 87, 34, 1)" stroke-width="1.5"></path><path d="M679.74 957.86L795.56 851.45" stroke="rgba(254, 87, 34, 1)" stroke-width="1.5"></path><path d="M679.74 957.86L837.66 995.29" stroke="rgba(254, 87, 34, 1)" stroke-width="1.5"></path><path d="M801.62 197.81L801.62 197.81" stroke="rgba(254, 87, 34, 1)" stroke-width="1.5"></path><path d="M801.62 197.81L830.34 371.74" stroke="rgba(254, 87, 34, 1)" stroke-width="1.5"></path><path d="M801.62 197.81L945.68 41.87" stroke="rgba(254, 87, 34, 1)" stroke-width="1.5"></path><path d="M830.34 371.74L830.34 371.74" stroke="rgba(254, 87, 34, 1)" stroke-width="1.5"></path><path d="M830.34 371.74L1003.18 404.01" stroke="rgba(254, 87, 34, 1)" stroke-width="1.5"></path><path d="M830.34 371.74L1005.92 493.42" stroke="rgba(254, 87, 34, 1)" stroke-width="1.5"></path><path d="M830.34 371.74L661.6 515.37" stroke="rgba(254, 87, 34, 1)" stroke-width="1.5"></path><path d="M793.56 662.23L793.56 662.23" stroke="rgba(254, 87, 34, 1)" stroke-width="1.5"></path><path d="M793.56 662.23L706.69 827" stroke="rgba(254, 87, 34, 1)" stroke-width="1.5"></path><path d="M793.56 662.23L795.56 851.45" stroke="rgba(254, 87, 34, 1)" stroke-width="1.5"></path><path d="M795.56 851.45L795.56 851.45" stroke="rgba(254, 87, 34, 1)" stroke-width="1.5"></path><path d="M795.56 851.45L837.66 995.29" stroke="rgba(254, 87, 34, 1)" stroke-width="1.5"></path><path d="M837.66 995.29L837.66 995.29" stroke="rgba(254, 87, 34, 1)" stroke-width="1.5"></path><path d="M837.66 995.29L947.09 990.79" stroke="rgba(254, 87, 34, 1)" stroke-width="1.5"></path><path d="M837.66 995.29L706.69 827" stroke="rgba(254, 87, 34, 1)" stroke-width="1.5"></path><path d="M944.52 -79.12L944.52 -79.12" stroke="rgba(254, 87, 34, 1)" stroke-width="1.5"></path><path d="M944.52 -79.12L945.68 41.87" stroke="rgba(254, 87, 34, 1)" stroke-width="1.5"></path><path d="M944.52 -79.12L1154.59 -104.65" stroke="rgba(254, 87, 34, 1)" stroke-width="1.5"></path><path d="M944.52 -79.12L1145.95 69.04" stroke="rgba(254, 87, 34, 1)" stroke-width="1.5"></path><path d="M944.52 -79.12L801.62 197.81" stroke="rgba(254, 87, 34, 1)" stroke-width="1.5"></path><path d="M944.52 -79.12L1285.71 -90.2" stroke="rgba(254, 87, 34, 1)" stroke-width="1.5"></path><path d="M945.68 41.87L945.68 41.87" stroke="rgba(254, 87, 34, 1)" stroke-width="1.5"></path><path d="M945.68 41.87L1145.95 69.04" stroke="rgba(254, 87, 34, 1)" stroke-width="1.5"></path><path d="M1003.18 404.01L1003.18 404.01" stroke="rgba(254, 87, 34, 1)" stroke-width="1.5"></path><path d="M1003.18 404.01L1005.92 493.42" stroke="rgba(254, 87, 34, 1)" stroke-width="1.5"></path><path d="M1003.18 404.01L1152.79 376.91" stroke="rgba(254, 87, 34, 1)" stroke-width="1.5"></path><path d="M1005.92 493.42L1005.92 493.42" stroke="rgba(254, 87, 34, 1)" stroke-width="1.5"></path><path d="M1005.92 493.42L1125.85 549.92" stroke="rgba(254, 87, 34, 1)" stroke-width="1.5"></path><path d="M1005.92 493.42L1000.49 663.04" stroke="rgba(254, 87, 34, 1)" stroke-width="1.5"></path><path d="M1005.92 493.42L1152.79 376.91" stroke="rgba(254, 87, 34, 1)" stroke-width="1.5"></path><path d="M1005.92 493.42L1091.86 688.41" stroke="rgba(254, 87, 34, 1)" stroke-width="1.5"></path><path d="M1000.49 663.04L1000.49 663.04" stroke="rgba(254, 87, 34, 1)" stroke-width="1.5"></path><path d="M1000.49 663.04L1091.86 688.41" stroke="rgba(254, 87, 34, 1)" stroke-width="1.5"></path><path d="M1000.49 663.04L1003.51 792.61" stroke="rgba(254, 87, 34, 1)" stroke-width="1.5"></path><path d="M1000.49 663.04L1125.85 549.92" stroke="rgba(254, 87, 34, 1)" stroke-width="1.5"></path><path d="M1003.51 792.61L1003.51 792.61" stroke="rgba(254, 87, 34, 1)" stroke-width="1.5"></path><path d="M1003.51 792.61L1129.91 792.65" stroke="rgba(254, 87, 34, 1)" stroke-width="1.5"></path><path d="M1003.51 792.61L1091.86 688.41" stroke="rgba(254, 87, 34, 1)" stroke-width="1.5"></path><path d="M1003.51 792.61L1113.67 945.02" stroke="rgba(254, 87, 34, 1)" stroke-width="1.5"></path><path d="M947.09 990.79L947.09 990.79" stroke="rgba(254, 87, 34, 1)" stroke-width="1.5"></path><path d="M947.09 990.79L1113.67 945.02" stroke="rgba(254, 87, 34, 1)" stroke-width="1.5"></path><path d="M947.09 990.79L795.56 851.45" stroke="rgba(254, 87, 34, 1)" stroke-width="1.5"></path><path d="M947.09 990.79L1003.51 792.61" stroke="rgba(254, 87, 34, 1)" stroke-width="1.5"></path><path d="M947.09 990.79L679.74 957.86" stroke="rgba(254, 87, 34, 1)" stroke-width="1.5"></path><path d="M1154.59 -104.65L1154.59 -104.65" stroke="rgba(254, 87, 34, 1)" stroke-width="1.5"></path><path d="M1154.59 -104.65L1285.71 -90.2" stroke="rgba(254, 87, 34, 1)" stroke-width="1.5"></path><path d="M1154.59 -104.65L1145.95 69.04" stroke="rgba(254, 87, 34, 1)" stroke-width="1.5"></path><path d="M1154.59 -104.65L1253.55 78.57" stroke="rgba(254, 87, 34, 1)" stroke-width="1.5"></path><path d="M1145.95 69.04L1145.95 69.04" stroke="rgba(254, 87, 34, 1)" stroke-width="1.5"></path><path d="M1145.95 69.04L1253.55 78.57" stroke="rgba(254, 87, 34, 1)" stroke-width="1.5"></path><path d="M1145.95 69.04L1097.98 256.17" stroke="rgba(254, 87, 34, 1)" stroke-width="1.5"></path><path d="M1145.95 69.04L1285.71 -90.2" stroke="rgba(254, 87, 34, 1)" stroke-width="1.5"></path><path d="M1097.98 256.17L1097.98 256.17" stroke="rgba(254, 87, 34, 1)" stroke-width="1.5"></path><path d="M1097.98 256.17L1152.79 376.91" stroke="rgba(254, 87, 34, 1)" stroke-width="1.5"></path><path d="M1097.98 256.17L1262.46 261.74" stroke="rgba(254, 87, 34, 1)" stroke-width="1.5"></path><path d="M1097.98 256.17L1003.18 404.01" stroke="rgba(254, 87, 34, 1)" stroke-width="1.5"></path><path d="M1152.79 376.91L1152.79 376.91" stroke="rgba(254, 87, 34, 1)" stroke-width="1.5"></path><path d="M1152.79 376.91L1287.56 339.93" stroke="rgba(254, 87, 34, 1)" stroke-width="1.5"></path><path d="M1152.79 376.91L1262.46 261.74" stroke="rgba(254, 87, 34, 1)" stroke-width="1.5"></path><path d="M1152.79 376.91L1125.85 549.92" stroke="rgba(254, 87, 34, 1)" stroke-width="1.5"></path><path d="M1125.85 549.92L1125.85 549.92" stroke="rgba(254, 87, 34, 1)" stroke-width="1.5"></path><path d="M1125.85 549.92L1091.86 688.41" stroke="rgba(254, 87, 34, 1)" stroke-width="1.5"></path><path d="M1125.85 549.92L1268.16 531.72" stroke="rgba(254, 87, 34, 1)" stroke-width="1.5"></path><path d="M1125.85 549.92L1003.18 404.01" stroke="rgba(254, 87, 34, 1)" stroke-width="1.5"></path><path d="M1091.86 688.41L1091.86 688.41" stroke="rgba(254, 87, 34, 1)" stroke-width="1.5"></path><path d="M1091.86 688.41L1129.91 792.65" stroke="rgba(254, 87, 34, 1)" stroke-width="1.5"></path><path d="M1129.91 792.65L1129.91 792.65" stroke="rgba(254, 87, 34, 1)" stroke-width="1.5"></path><path d="M1113.67 945.02L1113.67 945.02" stroke="rgba(254, 87, 34, 1)" stroke-width="1.5"></path><path d="M1113.67 945.02L1129.91 792.65" stroke="rgba(254, 87, 34, 1)" stroke-width="1.5"></path><path d="M1113.67 945.02L1254.27 854.65" stroke="rgba(254, 87, 34, 1)" stroke-width="1.5"></path><path d="M1285.71 -90.2L1285.71 -90.2" stroke="rgba(254, 87, 34, 1)" stroke-width="1.5"></path><path d="M1285.71 -90.2L1414.25 -100.64" stroke="rgba(254, 87, 34, 1)" stroke-width="1.5"></path><path d="M1285.71 -90.2L1253.55 78.57" stroke="rgba(254, 87, 34, 1)" stroke-width="1.5"></path><path d="M1253.55 78.57L1253.55 78.57" stroke="rgba(254, 87, 34, 1)" stroke-width="1.5"></path><path d="M1253.55 78.57L1262.46 261.74" stroke="rgba(254, 87, 34, 1)" stroke-width="1.5"></path><path d="M1253.55 78.57L1442.26 62.27" stroke="rgba(254, 87, 34, 1)" stroke-width="1.5"></path><path d="M1262.46 261.74L1262.46 261.74" stroke="rgba(254, 87, 34, 1)" stroke-width="1.5"></path><path d="M1262.46 261.74L1287.56 339.93" stroke="rgba(254, 87, 34, 1)" stroke-width="1.5"></path><path d="M1262.46 261.74L1394.49 402.77" stroke="rgba(254, 87, 34, 1)" stroke-width="1.5"></path><path d="M1287.56 339.93L1287.56 339.93" stroke="rgba(254, 87, 34, 1)" stroke-width="1.5"></path><path d="M1287.56 339.93L1394.49 402.77" stroke="rgba(254, 87, 34, 1)" stroke-width="1.5"></path><path d="M1287.56 339.93L1268.16 531.72" stroke="rgba(254, 87, 34, 1)" stroke-width="1.5"></path><path d="M1287.56 339.93L1097.98 256.17" stroke="rgba(254, 87, 34, 1)" stroke-width="1.5"></path><path d="M1287.56 339.93L1462.5 218.13" stroke="rgba(254, 87, 34, 1)" stroke-width="1.5"></path><path d="M1268.16 531.72L1268.16 531.72" stroke="rgba(254, 87, 34, 1)" stroke-width="1.5"></path><path d="M1268.16 531.72L1426.24 549.98" stroke="rgba(254, 87, 34, 1)" stroke-width="1.5"></path><path d="M1268.16 531.72L1278.67 695.61" stroke="rgba(254, 87, 34, 1)" stroke-width="1.5"></path><path d="M1268.16 531.72L1394.49 402.77" stroke="rgba(254, 87, 34, 1)" stroke-width="1.5"></path><path d="M1278.67 695.61L1278.67 695.61" stroke="rgba(254, 87, 34, 1)" stroke-width="1.5"></path><path d="M1278.67 695.61L1254.27 854.65" stroke="rgba(254, 87, 34, 1)" stroke-width="1.5"></path><path d="M1278.67 695.61L1432 641.45" stroke="rgba(254, 87, 34, 1)" stroke-width="1.5"></path><path d="M1278.67 695.61L1129.91 792.65" stroke="rgba(254, 87, 34, 1)" stroke-width="1.5"></path><path d="M1278.67 695.61L1091.86 688.41" stroke="rgba(254, 87, 34, 1)" stroke-width="1.5"></path><path d="M1254.27 854.65L1254.27 854.65" stroke="rgba(254, 87, 34, 1)" stroke-width="1.5"></path><path d="M1254.27 854.65L1302.02 954.91" stroke="rgba(254, 87, 34, 1)" stroke-width="1.5"></path><path d="M1254.27 854.65L1129.91 792.65" stroke="rgba(254, 87, 34, 1)" stroke-width="1.5"></path><path d="M1302.02 954.91L1302.02 954.91" stroke="rgba(254, 87, 34, 1)" stroke-width="1.5"></path><path d="M1302.02 954.91L1399.6 961.26" stroke="rgba(254, 87, 34, 1)" stroke-width="1.5"></path><path d="M1302.02 954.91L1424.88 840.93" stroke="rgba(254, 87, 34, 1)" stroke-width="1.5"></path><path d="M1302.02 954.91L1113.67 945.02" stroke="rgba(254, 87, 34, 1)" stroke-width="1.5"></path><path d="M1302.02 954.91L1129.91 792.65" stroke="rgba(254, 87, 34, 1)" stroke-width="1.5"></path><path d="M1414.25 -100.64L1414.25 -100.64" stroke="rgba(254, 87, 34, 1)" stroke-width="1.5"></path><path d="M1414.25 -100.64L1555.04 -69.01" stroke="rgba(254, 87, 34, 1)" stroke-width="1.5"></path><path d="M1414.25 -100.64L1442.26 62.27" stroke="rgba(254, 87, 34, 1)" stroke-width="1.5"></path><path d="M1414.25 -100.64L1566.85 52.87" stroke="rgba(254, 87, 34, 1)" stroke-width="1.5"></path><path d="M1414.25 -100.64L1253.55 78.57" stroke="rgba(254, 87, 34, 1)" stroke-width="1.5"></path><path d="M1442.26 62.27L1442.26 62.27" stroke="rgba(254, 87, 34, 1)" stroke-width="1.5"></path><path d="M1442.26 62.27L1566.85 52.87" stroke="rgba(254, 87, 34, 1)" stroke-width="1.5"></path><path d="M1442.26 62.27L1462.5 218.13" stroke="rgba(254, 87, 34, 1)" stroke-width="1.5"></path><path d="M1462.5 218.13L1462.5 218.13" stroke="rgba(254, 87, 34, 1)" stroke-width="1.5"></path><path d="M1462.5 218.13L1565.83 191.35" stroke="rgba(254, 87, 34, 1)" stroke-width="1.5"></path><path d="M1462.5 218.13L1566.85 52.87" stroke="rgba(254, 87, 34, 1)" stroke-width="1.5"></path><path d="M1462.5 218.13L1394.49 402.77" stroke="rgba(254, 87, 34, 1)" stroke-width="1.5"></path><path d="M1394.49 402.77L1394.49 402.77" stroke="rgba(254, 87, 34, 1)" stroke-width="1.5"></path><path d="M1394.49 402.77L1426.24 549.98" stroke="rgba(254, 87, 34, 1)" stroke-width="1.5"></path><path d="M1426.24 549.98L1426.24 549.98" stroke="rgba(254, 87, 34, 1)" stroke-width="1.5"></path><path d="M1426.24 549.98L1432 641.45" stroke="rgba(254, 87, 34, 1)" stroke-width="1.5"></path><path d="M1426.24 549.98L1567.06 553.13" stroke="rgba(254, 87, 34, 1)" stroke-width="1.5"></path><path d="M1432 641.45L1432 641.45" stroke="rgba(254, 87, 34, 1)" stroke-width="1.5"></path><path d="M1432 641.45L1557.17 709.87" stroke="rgba(254, 87, 34, 1)" stroke-width="1.5"></path><path d="M1432 641.45L1567.06 553.13" stroke="rgba(254, 87, 34, 1)" stroke-width="1.5"></path><path d="M1432 641.45L1268.16 531.72" stroke="rgba(254, 87, 34, 1)" stroke-width="1.5"></path><path d="M1432 641.45L1424.88 840.93" stroke="rgba(254, 87, 34, 1)" stroke-width="1.5"></path><path d="M1424.88 840.93L1424.88 840.93" stroke="rgba(254, 87, 34, 1)" stroke-width="1.5"></path><path d="M1424.88 840.93L1539.56 840.64" stroke="rgba(254, 87, 34, 1)" stroke-width="1.5"></path><path d="M1424.88 840.93L1399.6 961.26" stroke="rgba(254, 87, 34, 1)" stroke-width="1.5"></path><path d="M1424.88 840.93L1254.27 854.65" stroke="rgba(254, 87, 34, 1)" stroke-width="1.5"></path><path d="M1424.88 840.93L1554.69 954.05" stroke="rgba(254, 87, 34, 1)" stroke-width="1.5"></path><path d="M1399.6 961.26L1399.6 961.26" stroke="rgba(254, 87, 34, 1)" stroke-width="1.5"></path><path d="M1399.6 961.26L1554.69 954.05" stroke="rgba(254, 87, 34, 1)" stroke-width="1.5"></path><path d="M1399.6 961.26L1254.27 854.65" stroke="rgba(254, 87, 34, 1)" stroke-width="1.5"></path><path d="M1555.04 -69.01L1555.04 -69.01" stroke="rgba(254, 87, 34, 1)" stroke-width="1.5"></path><path d="M1555.04 -69.01L1566.85 52.87" stroke="rgba(254, 87, 34, 1)" stroke-width="1.5"></path><path d="M1566.85 52.87L1566.85 52.87" stroke="rgba(254, 87, 34, 1)" stroke-width="1.5"></path><path d="M1566.85 52.87L1565.83 191.35" stroke="rgba(254, 87, 34, 1)" stroke-width="1.5"></path><path d="M1565.83 191.35L1565.83 191.35" stroke="rgba(254, 87, 34, 1)" stroke-width="1.5"></path><path d="M1565.83 191.35L1442.26 62.27" stroke="rgba(254, 87, 34, 1)" stroke-width="1.5"></path><path d="M1565.83 191.35L1587.14 399.74" stroke="rgba(254, 87, 34, 1)" stroke-width="1.5"></path><path d="M1565.83 191.35L1555.04 -69.01" stroke="rgba(254, 87, 34, 1)" stroke-width="1.5"></path><path d="M1565.83 191.35L1394.49 402.77" stroke="rgba(254, 87, 34, 1)" stroke-width="1.5"></path><path d="M1587.14 399.74L1587.14 399.74" stroke="rgba(254, 87, 34, 1)" stroke-width="1.5"></path><path d="M1587.14 399.74L1567.06 553.13" stroke="rgba(254, 87, 34, 1)" stroke-width="1.5"></path><path d="M1587.14 399.74L1394.49 402.77" stroke="rgba(254, 87, 34, 1)" stroke-width="1.5"></path><path d="M1587.14 399.74L1426.24 549.98" stroke="rgba(254, 87, 34, 1)" stroke-width="1.5"></path><path d="M1587.14 399.74L1462.5 218.13" stroke="rgba(254, 87, 34, 1)" stroke-width="1.5"></path><path d="M1587.14 399.74L1432 641.45" stroke="rgba(254, 87, 34, 1)" stroke-width="1.5"></path><path d="M1567.06 553.13L1567.06 553.13" stroke="rgba(254, 87, 34, 1)" stroke-width="1.5"></path><path d="M1567.06 553.13L1557.17 709.87" stroke="rgba(254, 87, 34, 1)" stroke-width="1.5"></path><path d="M1567.06 553.13L1394.49 402.77" stroke="rgba(254, 87, 34, 1)" stroke-width="1.5"></path><path d="M1557.17 709.87L1557.17 709.87" stroke="rgba(254, 87, 34, 1)" stroke-width="1.5"></path><path d="M1557.17 709.87L1539.56 840.64" stroke="rgba(254, 87, 34, 1)" stroke-width="1.5"></path><path d="M1557.17 709.87L1424.88 840.93" stroke="rgba(254, 87, 34, 1)" stroke-width="1.5"></path><path d="M1539.56 840.64L1539.56 840.64" stroke="rgba(254, 87, 34, 1)" stroke-width="1.5"></path><path d="M1539.56 840.64L1554.69 954.05" stroke="rgba(254, 87, 34, 1)" stroke-width="1.5"></path><path d="M1554.69 954.05L1554.69 954.05" stroke="rgba(254, 87, 34, 1)" stroke-width="1.5"></path><circle r="5" cx="-38.99" cy="490" fill="rgba(254, 87, 34, 1)"></circle><circle r="5" cx="-82.01" cy="693.46" fill="rgba(254, 87, 34, 1)"></circle><circle r="5" cx="-48.46" cy="821.4" fill="rgba(254, 87, 34, 1)"></circle><circle r="5" cx="-41.26" cy="947.17" fill="rgba(254, 87, 34, 1)"></circle><circle r="5" cx="74.88" cy="535.84" fill="rgba(254, 87, 34, 1)"></circle><circle r="5" cx="88.99" cy="666.42" fill="rgba(254, 87, 34, 1)"></circle><circle r="5" cx="87.29" cy="819.18" fill="rgba(254, 87, 34, 1)"></circle><circle r="5" cx="64.44" cy="964.98" fill="rgba(254, 87, 34, 1)"></circle><circle r="5" cx="219.4" cy="562.3" fill="rgba(254, 87, 34, 1)"></circle><circle r="5" cx="224.62" cy="788.3" fill="rgba(254, 87, 34, 1)"></circle><circle r="5" cx="229.85" cy="975.22" fill="rgba(254, 87, 34, 1)"></circle><circle r="5" cx="405.95" cy="519.14" fill="rgba(254, 87, 34, 1)"></circle><circle r="5" cx="343.65" cy="646.69" fill="rgba(254, 87, 34, 1)"></circle><circle r="5" cx="375.74" cy="839.02" fill="rgba(254, 87, 34, 1)"></circle><circle r="5" cx="361.04" cy="947.52" fill="rgba(254, 87, 34, 1)"></circle><circle r="5" cx="509.34" cy="406.48" fill="rgba(254, 87, 34, 1)"></circle><circle r="5" cx="561.81" cy="552.85" fill="rgba(254, 87, 34, 1)"></circle><circle r="5" cx="545.67" cy="703.39" fill="rgba(254, 87, 34, 1)"></circle><circle r="5" cx="510.71" cy="812.5" fill="rgba(254, 87, 34, 1)"></circle><circle r="5" cx="502.02" cy="996.55" fill="rgba(254, 87, 34, 1)"></circle><circle r="5" cx="700.08" cy="378.97" fill="rgba(254, 87, 34, 1)"></circle><circle r="5" cx="661.6" cy="515.37" fill="rgba(254, 87, 34, 1)"></circle><circle r="5" cx="677.13" cy="652.85" fill="rgba(254, 87, 34, 1)"></circle><circle r="5" cx="706.69" cy="827" fill="rgba(254, 87, 34, 1)"></circle><circle r="5" cx="679.74" cy="957.86" fill="rgba(254, 87, 34, 1)"></circle><circle r="5" cx="801.62" cy="197.81" fill="rgba(254, 87, 34, 1)"></circle><circle r="5" cx="830.34" cy="371.74" fill="rgba(254, 87, 34, 1)"></circle><circle r="5" cx="793.56" cy="662.23" fill="rgba(254, 87, 34, 1)"></circle><circle r="5" cx="795.56" cy="851.45" fill="rgba(254, 87, 34, 1)"></circle><circle r="5" cx="837.66" cy="995.29" fill="rgba(254, 87, 34, 1)"></circle><circle r="5" cx="944.52" cy="-79.12" fill="rgba(254, 87, 34, 1)"></circle><circle r="5" cx="945.68" cy="41.87" fill="rgba(254, 87, 34, 1)"></circle><circle r="5" cx="1003.18" cy="404.01" fill="rgba(254, 87, 34, 1)"></circle><circle r="5" cx="1005.92" cy="493.42" fill="rgba(254, 87, 34, 1)"></circle><circle r="5" cx="1000.49" cy="663.04" fill="rgba(254, 87, 34, 1)"></circle><circle r="5" cx="1003.51" cy="792.61" fill="rgba(254, 87, 34, 1)"></circle><circle r="5" cx="947.09" cy="990.79" fill="rgba(254, 87, 34, 1)"></circle><circle r="5" cx="1154.59" cy="-104.65" fill="rgba(254, 87, 34, 1)"></circle><circle r="5" cx="1145.95" cy="69.04" fill="rgba(254, 87, 34, 1)"></circle><circle r="5" cx="1097.98" cy="256.17" fill="rgba(254, 87, 34, 1)"></circle><circle r="5" cx="1152.79" cy="376.91" fill="rgba(254, 87, 34, 1)"></circle><circle r="5" cx="1125.85" cy="549.92" fill="rgba(254, 87, 34, 1)"></circle><circle r="5" cx="1091.86" cy="688.41" fill="rgba(254, 87, 34, 1)"></circle><circle r="5" cx="1129.91" cy="792.65" fill="rgba(254, 87, 34, 1)"></circle><circle r="5" cx="1113.67" cy="945.02" fill="rgba(254, 87, 34, 1)"></circle><circle r="5" cx="1285.71" cy="-90.2" fill="rgba(254, 87, 34, 1)"></circle><circle r="5" cx="1253.55" cy="78.57" fill="rgba(254, 87, 34, 1)"></circle><circle r="5" cx="1262.46" cy="261.74" fill="rgba(254, 87, 34, 1)"></circle><circle r="5" cx="1287.56" cy="339.93" fill="rgba(254, 87, 34, 1)"></circle><circle r="5" cx="1268.16" cy="531.72" fill="rgba(254, 87, 34, 1)"></circle><circle r="5" cx="1278.67" cy="695.61" fill="rgba(254, 87, 34, 1)"></circle><circle r="5" cx="1254.27" cy="854.65" fill="rgba(254, 87, 34, 1)"></circle><circle r="5" cx="1302.02" cy="954.91" fill="rgba(254, 87, 34, 1)"></circle><circle r="5" cx="1414.25" cy="-100.64" fill="rgba(254, 87, 34, 1)"></circle><circle r="5" cx="1442.26" cy="62.27" fill="rgba(254, 87, 34, 1)"></circle><circle r="5" cx="1462.5" cy="218.13" fill="rgba(254, 87, 34, 1)"></circle><circle r="5" cx="1394.49" cy="402.77" fill="rgba(254, 87, 34, 1)"></circle><circle r="5" cx="1426.24" cy="549.98" fill="rgba(254, 87, 34, 1)"></circle><circle r="5" cx="1432" cy="641.45" fill="rgba(254, 87, 34, 1)"></circle><circle r="5" cx="1424.88" cy="840.93" fill="rgba(254, 87, 34, 1)"></circle><circle r="5" cx="1399.6" cy="961.26" fill="rgba(254, 87, 34, 1)"></circle><circle r="5" cx="1555.04" cy="-69.01" fill="rgba(254, 87, 34, 1)"></circle><circle r="5" cx="1566.85" cy="52.87" fill="rgba(254, 87, 34, 1)"></circle><circle r="5" cx="1565.83" cy="191.35" fill="rgba(254, 87, 34, 1)"></circle><circle r="5" cx="1587.14" cy="399.74" fill="rgba(254, 87, 34, 1)"></circle><circle r="5" cx="1567.06" cy="553.13" fill="rgba(254, 87, 34, 1)"></circle><circle r="5" cx="1557.17" cy="709.87" fill="rgba(254, 87, 34, 1)"></circle><circle r="5" cx="1539.56" cy="840.64" fill="rgba(254, 87, 34, 1)"></circle><circle r="5" cx="1554.69" cy="954.05" fill="rgba(254, 87, 34, 1)"></circle><path d="M687.51 942.92L687.51 942.92" stroke="hsl(14.5, 92.7%, 87.9%)" stroke-width="1.5"></path><path d="M687.51 942.92L650.9 836.72" stroke="hsl(14.5, 92.7%, 87.9%)" stroke-width="1.5"></path><path d="M687.51 942.92L802.82 994.02" stroke="hsl(14.5, 92.7%, 87.9%)" stroke-width="1.5"></path><path d="M687.51 942.92L836.21 833.05" stroke="hsl(14.5, 92.7%, 87.9%)" stroke-width="1.5"></path><path d="M687.51 942.92L498.54 949.62" stroke="hsl(14.5, 92.7%, 87.9%)" stroke-width="1.5"></path><path d="M792.95 503.78L792.95 503.78" stroke="hsl(14.5, 92.7%, 87.9%)" stroke-width="1.5"></path><path d="M792.95 503.78L652.78 542.49" stroke="hsl(14.5, 92.7%, 87.9%)" stroke-width="1.5"></path><path d="M792.95 503.78L946.52 497.84" stroke="hsl(14.5, 92.7%, 87.9%)" stroke-width="1.5"></path><path d="M792.95 503.78L839.75 675.81" stroke="hsl(14.5, 92.7%, 87.9%)" stroke-width="1.5"></path><path d="M792.95 503.78L666.45 648.35" stroke="hsl(14.5, 92.7%, 87.9%)" stroke-width="1.5"></path><path d="M836.21 833.05L836.21 833.05" stroke="hsl(14.5, 92.7%, 87.9%)" stroke-width="1.5"></path><path d="M836.21 833.05L949.44 800.29" stroke="hsl(14.5, 92.7%, 87.9%)" stroke-width="1.5"></path><path d="M836.21 833.05L839.75 675.81" stroke="hsl(14.5, 92.7%, 87.9%)" stroke-width="1.5"></path><path d="M995.02 979.13L995.02 979.13" stroke="hsl(14.5, 92.7%, 87.9%)" stroke-width="1.5"></path><path d="M995.02 979.13L1112.54 942.75" stroke="hsl(14.5, 92.7%, 87.9%)" stroke-width="1.5"></path><path d="M995.02 979.13L949.44 800.29" stroke="hsl(14.5, 92.7%, 87.9%)" stroke-width="1.5"></path><path d="M1118.77 487.53L1118.77 487.53" stroke="hsl(14.5, 92.7%, 87.9%)" stroke-width="1.5"></path><path d="M1118.77 487.53L1158.9 384.51" stroke="hsl(14.5, 92.7%, 87.9%)" stroke-width="1.5"></path><path d="M1118.77 487.53L1273.06 512.73" stroke="hsl(14.5, 92.7%, 87.9%)" stroke-width="1.5"></path><path d="M1118.77 487.53L1128.83 659.47" stroke="hsl(14.5, 92.7%, 87.9%)" stroke-width="1.5"></path><path d="M1118.77 487.53L946.52 497.84" stroke="hsl(14.5, 92.7%, 87.9%)" stroke-width="1.5"></path><path d="M1128.83 659.47L1128.83 659.47" stroke="hsl(14.5, 92.7%, 87.9%)" stroke-width="1.5"></path><path d="M1128.83 659.47L1259.15 638.84" stroke="hsl(14.5, 92.7%, 87.9%)" stroke-width="1.5"></path><path d="M1289.35 -70.56L1289.35 -70.56" stroke="hsl(14.5, 92.7%, 87.9%)" stroke-width="1.5"></path><path d="M1289.35 -70.56L1420.98 -45.52" stroke="hsl(14.5, 92.7%, 87.9%)" stroke-width="1.5"></path><path d="M1289.35 -70.56L1244.97 78" stroke="hsl(14.5, 92.7%, 87.9%)" stroke-width="1.5"></path><path d="M1611.17 -86.07L1611.17 -86.07" stroke="hsl(14.5, 92.7%, 87.9%)" stroke-width="1.5"></path><path d="M1611.17 -86.07L1546.01 61.97" stroke="hsl(14.5, 92.7%, 87.9%)" stroke-width="1.5"></path><path d="M1611.17 -86.07L1420.98 -45.52" stroke="hsl(14.5, 92.7%, 87.9%)" stroke-width="1.5"></path><path d="M1611.17 -86.07L1407.28 82.15" stroke="hsl(14.5, 92.7%, 87.9%)" stroke-width="1.5"></path><path d="M-76.94 823.75L-76.94 823.75" stroke="hsl(14.5, 92.7%, 87.9%)" stroke-width="1.5"></path><path d="M-76.94 823.75L61.08 852.55" stroke="hsl(14.5, 92.7%, 87.9%)" stroke-width="1.5"></path><path d="M-76.94 823.75L45.63 989.53" stroke="hsl(14.5, 92.7%, 87.9%)" stroke-width="1.5"></path><path d="M-76.94 823.75L97.83 702.22" stroke="hsl(14.5, 92.7%, 87.9%)" stroke-width="1.5"></path><path d="M97.83 702.22L97.83 702.22" stroke="hsl(14.5, 92.7%, 87.9%)" stroke-width="1.5"></path><path d="M97.83 702.22L61.08 852.55" stroke="hsl(14.5, 92.7%, 87.9%)" stroke-width="1.5"></path><path d="M97.83 702.22L261.5 811.84" stroke="hsl(14.5, 92.7%, 87.9%)" stroke-width="1.5"></path><path d="M97.83 702.22L350.22 791.01" stroke="hsl(14.5, 92.7%, 87.9%)" stroke-width="1.5"></path><path d="M97.83 702.22L45.63 989.53" stroke="hsl(14.5, 92.7%, 87.9%)" stroke-width="1.5"></path><path d="M61.08 852.55L61.08 852.55" stroke="hsl(14.5, 92.7%, 87.9%)" stroke-width="1.5"></path><path d="M61.08 852.55L45.63 989.53" stroke="hsl(14.5, 92.7%, 87.9%)" stroke-width="1.5"></path><path d="M61.08 852.55L261.5 811.84" stroke="hsl(14.5, 92.7%, 87.9%)" stroke-width="1.5"></path><path d="M61.08 852.55L228.19 988.62" stroke="hsl(14.5, 92.7%, 87.9%)" stroke-width="1.5"></path><path d="M45.63 989.53L45.63 989.53" stroke="hsl(14.5, 92.7%, 87.9%)" stroke-width="1.5"></path><path d="M45.63 989.53L228.19 988.62" stroke="hsl(14.5, 92.7%, 87.9%)" stroke-width="1.5"></path><path d="M45.63 989.53L261.5 811.84" stroke="hsl(14.5, 92.7%, 87.9%)" stroke-width="1.5"></path><path d="M261.5 811.84L261.5 811.84" stroke="hsl(14.5, 92.7%, 87.9%)" stroke-width="1.5"></path><path d="M261.5 811.84L350.22 791.01" stroke="hsl(14.5, 92.7%, 87.9%)" stroke-width="1.5"></path><path d="M261.5 811.84L228.19 988.62" stroke="hsl(14.5, 92.7%, 87.9%)" stroke-width="1.5"></path><path d="M261.5 811.84L344.51 990" stroke="hsl(14.5, 92.7%, 87.9%)" stroke-width="1.5"></path><path d="M228.19 988.62L228.19 988.62" stroke="hsl(14.5, 92.7%, 87.9%)" stroke-width="1.5"></path><path d="M228.19 988.62L344.51 990" stroke="hsl(14.5, 92.7%, 87.9%)" stroke-width="1.5"></path><path d="M228.19 988.62L350.22 791.01" stroke="hsl(14.5, 92.7%, 87.9%)" stroke-width="1.5"></path><path d="M228.19 988.62L498.54 949.62" stroke="hsl(14.5, 92.7%, 87.9%)" stroke-width="1.5"></path><path d="M350.22 791.01L350.22 791.01" stroke="hsl(14.5, 92.7%, 87.9%)" stroke-width="1.5"></path><path d="M350.22 791.01L497.41 824.99" stroke="hsl(14.5, 92.7%, 87.9%)" stroke-width="1.5"></path><path d="M350.22 791.01L516.39 712.2" stroke="hsl(14.5, 92.7%, 87.9%)" stroke-width="1.5"></path><path d="M344.51 990L344.51 990" stroke="hsl(14.5, 92.7%, 87.9%)" stroke-width="1.5"></path><path d="M344.51 990L498.54 949.62" stroke="hsl(14.5, 92.7%, 87.9%)" stroke-width="1.5"></path><path d="M516.39 712.2L516.39 712.2" stroke="hsl(14.5, 92.7%, 87.9%)" stroke-width="1.5"></path><path d="M516.39 712.2L497.41 824.99" stroke="hsl(14.5, 92.7%, 87.9%)" stroke-width="1.5"></path><path d="M516.39 712.2L666.45 648.35" stroke="hsl(14.5, 92.7%, 87.9%)" stroke-width="1.5"></path><path d="M516.39 712.2L650.9 836.72" stroke="hsl(14.5, 92.7%, 87.9%)" stroke-width="1.5"></path><path d="M516.39 712.2L652.78 542.49" stroke="hsl(14.5, 92.7%, 87.9%)" stroke-width="1.5"></path><path d="M516.39 712.2L498.54 949.62" stroke="hsl(14.5, 92.7%, 87.9%)" stroke-width="1.5"></path><path d="M497.41 824.99L497.41 824.99" stroke="hsl(14.5, 92.7%, 87.9%)" stroke-width="1.5"></path><path d="M497.41 824.99L498.54 949.62" stroke="hsl(14.5, 92.7%, 87.9%)" stroke-width="1.5"></path><path d="M498.54 949.62L498.54 949.62" stroke="hsl(14.5, 92.7%, 87.9%)" stroke-width="1.5"></path><path d="M498.54 949.62L650.9 836.72" stroke="hsl(14.5, 92.7%, 87.9%)" stroke-width="1.5"></path><path d="M652.78 542.49L652.78 542.49" stroke="hsl(14.5, 92.7%, 87.9%)" stroke-width="1.5"></path><path d="M652.78 542.49L666.45 648.35" stroke="hsl(14.5, 92.7%, 87.9%)" stroke-width="1.5"></path><path d="M666.45 648.35L666.45 648.35" stroke="hsl(14.5, 92.7%, 87.9%)" stroke-width="1.5"></path><path d="M666.45 648.35L839.75 675.81" stroke="hsl(14.5, 92.7%, 87.9%)" stroke-width="1.5"></path><path d="M666.45 648.35L650.9 836.72" stroke="hsl(14.5, 92.7%, 87.9%)" stroke-width="1.5"></path><path d="M650.9 836.72L650.9 836.72" stroke="hsl(14.5, 92.7%, 87.9%)" stroke-width="1.5"></path><path d="M650.9 836.72L497.41 824.99" stroke="hsl(14.5, 92.7%, 87.9%)" stroke-width="1.5"></path><path d="M650.9 836.72L836.21 833.05" stroke="hsl(14.5, 92.7%, 87.9%)" stroke-width="1.5"></path><path d="M839.75 675.81L839.75 675.81" stroke="hsl(14.5, 92.7%, 87.9%)" stroke-width="1.5"></path><path d="M839.75 675.81L953.03 652.46" stroke="hsl(14.5, 92.7%, 87.9%)" stroke-width="1.5"></path><path d="M839.75 675.81L949.44 800.29" stroke="hsl(14.5, 92.7%, 87.9%)" stroke-width="1.5"></path><path d="M802.82 994.02L802.82 994.02" stroke="hsl(14.5, 92.7%, 87.9%)" stroke-width="1.5"></path><path d="M802.82 994.02L836.21 833.05" stroke="hsl(14.5, 92.7%, 87.9%)" stroke-width="1.5"></path><path d="M946.52 497.84L946.52 497.84" stroke="hsl(14.5, 92.7%, 87.9%)" stroke-width="1.5"></path><path d="M946.52 497.84L953.03 652.46" stroke="hsl(14.5, 92.7%, 87.9%)" stroke-width="1.5"></path><path d="M946.52 497.84L839.75 675.81" stroke="hsl(14.5, 92.7%, 87.9%)" stroke-width="1.5"></path><path d="M946.52 497.84L1158.9 384.51" stroke="hsl(14.5, 92.7%, 87.9%)" stroke-width="1.5"></path><path d="M946.52 497.84L1128.83 659.47" stroke="hsl(14.5, 92.7%, 87.9%)" stroke-width="1.5"></path><path d="M953.03 652.46L953.03 652.46" stroke="hsl(14.5, 92.7%, 87.9%)" stroke-width="1.5"></path><path d="M953.03 652.46L949.44 800.29" stroke="hsl(14.5, 92.7%, 87.9%)" stroke-width="1.5"></path><path d="M953.03 652.46L1128.83 659.47" stroke="hsl(14.5, 92.7%, 87.9%)" stroke-width="1.5"></path><path d="M953.03 652.46L836.21 833.05" stroke="hsl(14.5, 92.7%, 87.9%)" stroke-width="1.5"></path><path d="M953.03 652.46L792.95 503.78" stroke="hsl(14.5, 92.7%, 87.9%)" stroke-width="1.5"></path><path d="M949.44 800.29L949.44 800.29" stroke="hsl(14.5, 92.7%, 87.9%)" stroke-width="1.5"></path><path d="M949.44 800.29L1112.61 835.14" stroke="hsl(14.5, 92.7%, 87.9%)" stroke-width="1.5"></path><path d="M1125.82 259.89L1125.82 259.89" stroke="hsl(14.5, 92.7%, 87.9%)" stroke-width="1.5"></path><path d="M1125.82 259.89L1158.9 384.51" stroke="hsl(14.5, 92.7%, 87.9%)" stroke-width="1.5"></path><path d="M1125.82 259.89L1256.51 189.07" stroke="hsl(14.5, 92.7%, 87.9%)" stroke-width="1.5"></path><path d="M1125.82 259.89L1244.97 78" stroke="hsl(14.5, 92.7%, 87.9%)" stroke-width="1.5"></path><path d="M1125.82 259.89L1118.77 487.53" stroke="hsl(14.5, 92.7%, 87.9%)" stroke-width="1.5"></path><path d="M1125.82 259.89L1392.21 198.44" stroke="hsl(14.5, 92.7%, 87.9%)" stroke-width="1.5"></path><path d="M1158.9 384.51L1158.9 384.51" stroke="hsl(14.5, 92.7%, 87.9%)" stroke-width="1.5"></path><path d="M1112.61 835.14L1112.61 835.14" stroke="hsl(14.5, 92.7%, 87.9%)" stroke-width="1.5"></path><path d="M1112.61 835.14L1112.54 942.75" stroke="hsl(14.5, 92.7%, 87.9%)" stroke-width="1.5"></path><path d="M1112.61 835.14L1128.83 659.47" stroke="hsl(14.5, 92.7%, 87.9%)" stroke-width="1.5"></path><path d="M1112.61 835.14L1296.28 826.55" stroke="hsl(14.5, 92.7%, 87.9%)" stroke-width="1.5"></path><path d="M1112.61 835.14L995.02 979.13" stroke="hsl(14.5, 92.7%, 87.9%)" stroke-width="1.5"></path><path d="M1112.61 835.14L953.03 652.46" stroke="hsl(14.5, 92.7%, 87.9%)" stroke-width="1.5"></path><path d="M1112.54 942.75L1112.54 942.75" stroke="hsl(14.5, 92.7%, 87.9%)" stroke-width="1.5"></path><path d="M1112.54 942.75L949.44 800.29" stroke="hsl(14.5, 92.7%, 87.9%)" stroke-width="1.5"></path><path d="M1244.97 78L1244.97 78" stroke="hsl(14.5, 92.7%, 87.9%)" stroke-width="1.5"></path><path d="M1244.97 78L1256.51 189.07" stroke="hsl(14.5, 92.7%, 87.9%)" stroke-width="1.5"></path><path d="M1244.97 78L1407.28 82.15" stroke="hsl(14.5, 92.7%, 87.9%)" stroke-width="1.5"></path><path d="M1244.97 78L1392.21 198.44" stroke="hsl(14.5, 92.7%, 87.9%)" stroke-width="1.5"></path><path d="M1256.51 189.07L1256.51 189.07" stroke="hsl(14.5, 92.7%, 87.9%)" stroke-width="1.5"></path><path d="M1256.51 189.07L1392.21 198.44" stroke="hsl(14.5, 92.7%, 87.9%)" stroke-width="1.5"></path><path d="M1256.51 189.07L1407.28 82.15" stroke="hsl(14.5, 92.7%, 87.9%)" stroke-width="1.5"></path><path d="M1256.51 189.07L1158.9 384.51" stroke="hsl(14.5, 92.7%, 87.9%)" stroke-width="1.5"></path><path d="M1273.06 512.73L1273.06 512.73" stroke="hsl(14.5, 92.7%, 87.9%)" stroke-width="1.5"></path><path d="M1273.06 512.73L1259.15 638.84" stroke="hsl(14.5, 92.7%, 87.9%)" stroke-width="1.5"></path><path d="M1273.06 512.73L1158.9 384.51" stroke="hsl(14.5, 92.7%, 87.9%)" stroke-width="1.5"></path><path d="M1273.06 512.73L1458.44 490.28" stroke="hsl(14.5, 92.7%, 87.9%)" stroke-width="1.5"></path><path d="M1273.06 512.73L1438.76 397.53" stroke="hsl(14.5, 92.7%, 87.9%)" stroke-width="1.5"></path><path d="M1273.06 512.73L1128.83 659.47" stroke="hsl(14.5, 92.7%, 87.9%)" stroke-width="1.5"></path><path d="M1259.15 638.84L1259.15 638.84" stroke="hsl(14.5, 92.7%, 87.9%)" stroke-width="1.5"></path><path d="M1259.15 638.84L1411.49 681.64" stroke="hsl(14.5, 92.7%, 87.9%)" stroke-width="1.5"></path><path d="M1259.15 638.84L1296.28 826.55" stroke="hsl(14.5, 92.7%, 87.9%)" stroke-width="1.5"></path><path d="M1259.15 638.84L1118.77 487.53" stroke="hsl(14.5, 92.7%, 87.9%)" stroke-width="1.5"></path><path d="M1259.15 638.84L1411.02 829.58" stroke="hsl(14.5, 92.7%, 87.9%)" stroke-width="1.5"></path><path d="M1296.28 826.55L1296.28 826.55" stroke="hsl(14.5, 92.7%, 87.9%)" stroke-width="1.5"></path><path d="M1296.28 826.55L1411.02 829.58" stroke="hsl(14.5, 92.7%, 87.9%)" stroke-width="1.5"></path><path d="M1296.28 826.55L1411.49 681.64" stroke="hsl(14.5, 92.7%, 87.9%)" stroke-width="1.5"></path><path d="M1296.28 826.55L1393.87 984.83" stroke="hsl(14.5, 92.7%, 87.9%)" stroke-width="1.5"></path><path d="M1420.98 -45.52L1420.98 -45.52" stroke="hsl(14.5, 92.7%, 87.9%)" stroke-width="1.5"></path><path d="M1420.98 -45.52L1407.28 82.15" stroke="hsl(14.5, 92.7%, 87.9%)" stroke-width="1.5"></path><path d="M1420.98 -45.52L1546.01 61.97" stroke="hsl(14.5, 92.7%, 87.9%)" stroke-width="1.5"></path><path d="M1407.28 82.15L1407.28 82.15" stroke="hsl(14.5, 92.7%, 87.9%)" stroke-width="1.5"></path><path d="M1407.28 82.15L1392.21 198.44" stroke="hsl(14.5, 92.7%, 87.9%)" stroke-width="1.5"></path><path d="M1407.28 82.15L1546.01 61.97" stroke="hsl(14.5, 92.7%, 87.9%)" stroke-width="1.5"></path><path d="M1392.21 198.44L1392.21 198.44" stroke="hsl(14.5, 92.7%, 87.9%)" stroke-width="1.5"></path><path d="M1392.21 198.44L1438.76 397.53" stroke="hsl(14.5, 92.7%, 87.9%)" stroke-width="1.5"></path><path d="M1438.76 397.53L1438.76 397.53" stroke="hsl(14.5, 92.7%, 87.9%)" stroke-width="1.5"></path><path d="M1438.76 397.53L1458.44 490.28" stroke="hsl(14.5, 92.7%, 87.9%)" stroke-width="1.5"></path><path d="M1438.76 397.53L1581.42 338.61" stroke="hsl(14.5, 92.7%, 87.9%)" stroke-width="1.5"></path><path d="M1458.44 490.28L1458.44 490.28" stroke="hsl(14.5, 92.7%, 87.9%)" stroke-width="1.5"></path><path d="M1458.44 490.28L1606.6 555.42" stroke="hsl(14.5, 92.7%, 87.9%)" stroke-width="1.5"></path><path d="M1411.49 681.64L1411.49 681.64" stroke="hsl(14.5, 92.7%, 87.9%)" stroke-width="1.5"></path><path d="M1411.49 681.64L1411.02 829.58" stroke="hsl(14.5, 92.7%, 87.9%)" stroke-width="1.5"></path><path d="M1411.49 681.64L1458.44 490.28" stroke="hsl(14.5, 92.7%, 87.9%)" stroke-width="1.5"></path><path d="M1411.02 829.58L1411.02 829.58" stroke="hsl(14.5, 92.7%, 87.9%)" stroke-width="1.5"></path><path d="M1393.87 984.83L1393.87 984.83" stroke="hsl(14.5, 92.7%, 87.9%)" stroke-width="1.5"></path><path d="M1393.87 984.83L1411.02 829.58" stroke="hsl(14.5, 92.7%, 87.9%)" stroke-width="1.5"></path><path d="M1393.87 984.83L1579.1 976.19" stroke="hsl(14.5, 92.7%, 87.9%)" stroke-width="1.5"></path><path d="M1393.87 984.83L1589.66 791.95" stroke="hsl(14.5, 92.7%, 87.9%)" stroke-width="1.5"></path><path d="M1393.87 984.83L1112.54 942.75" stroke="hsl(14.5, 92.7%, 87.9%)" stroke-width="1.5"></path><path d="M1546.01 61.97L1546.01 61.97" stroke="hsl(14.5, 92.7%, 87.9%)" stroke-width="1.5"></path><path d="M1546.01 61.97L1392.21 198.44" stroke="hsl(14.5, 92.7%, 87.9%)" stroke-width="1.5"></path><path d="M1546.01 61.97L1605.86 259.87" stroke="hsl(14.5, 92.7%, 87.9%)" stroke-width="1.5"></path><path d="M1546.01 61.97L1581.42 338.61" stroke="hsl(14.5, 92.7%, 87.9%)" stroke-width="1.5"></path><path d="M1605.86 259.87L1605.86 259.87" stroke="hsl(14.5, 92.7%, 87.9%)" stroke-width="1.5"></path><path d="M1605.86 259.87L1581.42 338.61" stroke="hsl(14.5, 92.7%, 87.9%)" stroke-width="1.5"></path><path d="M1581.42 338.61L1581.42 338.61" stroke="hsl(14.5, 92.7%, 87.9%)" stroke-width="1.5"></path><path d="M1581.42 338.61L1458.44 490.28" stroke="hsl(14.5, 92.7%, 87.9%)" stroke-width="1.5"></path><path d="M1581.42 338.61L1606.6 555.42" stroke="hsl(14.5, 92.7%, 87.9%)" stroke-width="1.5"></path><path d="M1581.42 338.61L1392.21 198.44" stroke="hsl(14.5, 92.7%, 87.9%)" stroke-width="1.5"></path><path d="M1606.6 555.42L1606.6 555.42" stroke="hsl(14.5, 92.7%, 87.9%)" stroke-width="1.5"></path><path d="M1606.6 555.42L1609.92 704.91" stroke="hsl(14.5, 92.7%, 87.9%)" stroke-width="1.5"></path><path d="M1609.92 704.91L1609.92 704.91" stroke="hsl(14.5, 92.7%, 87.9%)" stroke-width="1.5"></path><path d="M1609.92 704.91L1589.66 791.95" stroke="hsl(14.5, 92.7%, 87.9%)" stroke-width="1.5"></path><path d="M1609.92 704.91L1411.49 681.64" stroke="hsl(14.5, 92.7%, 87.9%)" stroke-width="1.5"></path><path d="M1589.66 791.95L1589.66 791.95" stroke="hsl(14.5, 92.7%, 87.9%)" stroke-width="1.5"></path><path d="M1589.66 791.95L1411.02 829.58" stroke="hsl(14.5, 92.7%, 87.9%)" stroke-width="1.5"></path><path d="M1589.66 791.95L1579.1 976.19" stroke="hsl(14.5, 92.7%, 87.9%)" stroke-width="1.5"></path><path d="M1589.66 791.95L1411.49 681.64" stroke="hsl(14.5, 92.7%, 87.9%)" stroke-width="1.5"></path><path d="M1589.66 791.95L1606.6 555.42" stroke="hsl(14.5, 92.7%, 87.9%)" stroke-width="1.5"></path><path d="M1579.1 976.19L1579.1 976.19" stroke="hsl(14.5, 92.7%, 87.9%)" stroke-width="1.5"></path><path d="M1579.1 976.19L1411.02 829.58" stroke="hsl(14.5, 92.7%, 87.9%)" stroke-width="1.5"></path><path d="M1579.1 976.19L1609.92 704.91" stroke="hsl(14.5, 92.7%, 87.9%)" stroke-width="1.5"></path><path d="M1579.1 976.19L1296.28 826.55" stroke="hsl(14.5, 92.7%, 87.9%)" stroke-width="1.5"></path><circle r="25" cx="687.51" cy="942.92" fill="url(&quot;#SvgjsRadialGradient1081&quot;)"></circle><circle r="25" cx="792.95" cy="503.78" fill="url(&quot;#SvgjsRadialGradient1081&quot;)"></circle><circle r="25" cx="836.21" cy="833.05" fill="url(&quot;#SvgjsRadialGradient1081&quot;)"></circle><circle r="25" cx="995.02" cy="979.13" fill="url(&quot;#SvgjsRadialGradient1081&quot;)"></circle><circle r="25" cx="1118.77" cy="487.53" fill="url(&quot;#SvgjsRadialGradient1081&quot;)"></circle><circle r="25" cx="1128.83" cy="659.47" fill="url(&quot;#SvgjsRadialGradient1081&quot;)"></circle><circle r="25" cx="1289.35" cy="-70.56" fill="url(&quot;#SvgjsRadialGradient1081&quot;)"></circle><circle r="25" cx="1611.17" cy="-86.07" fill="url(&quot;#SvgjsRadialGradient1081&quot;)"></circle><circle r="5" cx="-76.94" cy="823.75" fill="#fcc2b0"></circle><circle r="5" cx="97.83" cy="702.22" fill="#fcc2b0"></circle><circle r="5" cx="61.08" cy="852.55" fill="#fcc2b0"></circle><circle r="5" cx="45.63" cy="989.53" fill="#fcc2b0"></circle><circle r="5" cx="261.5" cy="811.84" fill="#fcc2b0"></circle><circle r="5" cx="228.19" cy="988.62" fill="#fcc2b0"></circle><circle r="5" cx="350.22" cy="791.01" fill="#fcc2b0"></circle><circle r="5" cx="344.51" cy="990" fill="#fcc2b0"></circle><circle r="5" cx="516.39" cy="712.2" fill="#fcc2b0"></circle><circle r="5" cx="497.41" cy="824.99" fill="#fcc2b0"></circle><circle r="5" cx="498.54" cy="949.62" fill="#fcc2b0"></circle><circle r="5" cx="652.78" cy="542.49" fill="#fcc2b0"></circle><circle r="5" cx="666.45" cy="648.35" fill="#fcc2b0"></circle><circle r="5" cx="650.9" cy="836.72" fill="#fcc2b0"></circle><circle r="5" cx="839.75" cy="675.81" fill="#fcc2b0"></circle><circle r="5" cx="802.82" cy="994.02" fill="#fcc2b0"></circle><circle r="5" cx="946.52" cy="497.84" fill="#fcc2b0"></circle><circle r="5" cx="953.03" cy="652.46" fill="#fcc2b0"></circle><circle r="5" cx="949.44" cy="800.29" fill="#fcc2b0"></circle><circle r="5" cx="1125.82" cy="259.89" fill="#fcc2b0"></circle><circle r="5" cx="1158.9" cy="384.51" fill="#fcc2b0"></circle><circle r="5" cx="1112.61" cy="835.14" fill="#fcc2b0"></circle><circle r="5" cx="1112.54" cy="942.75" fill="#fcc2b0"></circle><circle r="5" cx="1244.97" cy="78" fill="#fcc2b0"></circle><circle r="5" cx="1256.51" cy="189.07" fill="#fcc2b0"></circle><circle r="5" cx="1273.06" cy="512.73" fill="#fcc2b0"></circle><circle r="5" cx="1259.15" cy="638.84" fill="#fcc2b0"></circle><circle r="5" cx="1296.28" cy="826.55" fill="#fcc2b0"></circle><circle r="5" cx="1420.98" cy="-45.52" fill="#fcc2b0"></circle><circle r="5" cx="1407.28" cy="82.15" fill="#fcc2b0"></circle><circle r="5" cx="1392.21" cy="198.44" fill="#fcc2b0"></circle><circle r="5" cx="1438.76" cy="397.53" fill="#fcc2b0"></circle><circle r="5" cx="1458.44" cy="490.28" fill="#fcc2b0"></circle><circle r="5" cx="1411.49" cy="681.64" fill="#fcc2b0"></circle><circle r="5" cx="1411.02" cy="829.58" fill="#fcc2b0"></circle><circle r="5" cx="1393.87" cy="984.83" fill="#fcc2b0"></circle><circle r="5" cx="1546.01" cy="61.97" fill="#fcc2b0"></circle><circle r="5" cx="1605.86" cy="259.87" fill="#fcc2b0"></circle><circle r="5" cx="1581.42" cy="338.61" fill="#fcc2b0"></circle><circle r="5" cx="1606.6" cy="555.42" fill="#fcc2b0"></circle><circle r="5" cx="1609.92" cy="704.91" fill="#fcc2b0"></circle><circle r="5" cx="1589.66" cy="791.95" fill="#fcc2b0"></circle><circle r="5" cx="1579.1" cy="976.19" fill="#fcc2b0"></circle></g><defs><mask id="SvgjsMask1080"><rect width="1440" height="810" fill="#ffffff"></rect></mask><radialGradient id="SvgjsRadialGradient1081"><stop stop-color="#ffffff" offset="0.1"></stop><stop stop-color="rgba(249, 133, 96, 1)" offset="0.2"></stop><stop stop-color="rgba(249, 133, 96, 0)" offset="1"></stop></radialGradient></defs></svg>